<?xml version="1.0"?>
<svg xmlns="http://www.w3.org/2000/svg" id="Calque_1" data-name="Calque 1" viewBox="0 0 91 91">
  <defs>
    <style>.cls-1{fill:#ce0033;}</style>
  </defs>
  <title>SIMPLON_CO_LOGOTYPE_MARQUE_PROPRIETAIRE_ROUGE_NOIR_RVB</title>
  <path class="cls-1" d="m 77.763613,13.250542 a 43.09,43.09 0 0 1 13.22,31.54 43.14,43.14 0 0 1 -13.22,31.64 46,46 0 0 1 -64.54,0 43.14,43.14 0 0 1 -13.21999965,-31.64 43.09,43.09 0 0 1 13.21999965,-31.54 45.92,45.92 0 0 1 64.54,0 z m -32.3,-3.6500002 a 33,33 0 0 0 -24.19,10.2400002 34,34 0 0 0 -10.21,25 34,34 0 0 0 10.21,25 33.83,33.83 0 0 0 48.44,0 34,34 0 0 0 10.21,-25 34,34 0 0 0 -10.21,-24.95 33.11,33.11 0 0 0 -24.25,-10.2900002 z"/>
  <path class="cls-1" d="m 51.533613,27.410542 h -13.35 v 13.35 h 13.35 z m 0,23.82 h -13.35 v 13.35 h 13.35 z"/>
</svg>
